<svg width="16" height="16" viewBox="0 0 16 16" fill="none" xmlns="http://www.w3.org/2000/svg">
<g clip-path="url(#clip0)">
<path d="M8.00338 9.54113L2.01756 3.55557C1.85314 3.39076 1.6333 3.30009 1.39889 3.30009C1.16436 3.30009 0.94465 3.39076 0.779967 3.55557L0.255739 4.08006C0.0907964 4.24461 -3.59972e-07 4.46458 -3.49725e-07 4.69899C-3.39479e-07 4.93339 0.0907964 5.1531 0.255739 5.31778L7.38237 12.4445C7.54758 12.6099 7.76832 12.7004 8.00299 12.6998C8.2387 12.7004 8.45919 12.61 8.62452 12.4445L15.7443 5.32441C15.9092 5.15973 16 4.94003 16 4.70549C16 4.47108 15.9092 4.25137 15.7443 4.08656L15.22 3.5622C14.8788 3.221 14.3234 3.221 13.9823 3.5622L8.00338 9.54113Z" fill="#7B7B7B"/>
</g>
<defs>
<clipPath id="clip0">
<rect width="16" height="16" fill="white" transform="translate(0 16) rotate(-90)"/>
</clipPath>
</defs>
</svg>
